<?xml version="1.0" standalone="no"?>
<svg viewBox="0 0 200 200" xmlns="http://www.w3.org/2000/svg">
  <path fill="#BB86FC" d="M38,-56.7C52.7,-49.8,70.2,-44.9,80.8,-33.5C91.4,-22,94.9,-3.9,87.3,8.8C79.7,21.6,60.8,29,48.3,40C35.8,51,29.7,65.6,20.1,68.5C10.5,71.3,-2.6,62.3,-16.2,57.4C-29.8,52.4,-43.9,51.3,-51.1,43.8C-58.3,36.4,-58.6,22.4,-58.1,9.8C-57.6,-2.7,-56.3,-13.9,-55.4,-29.2C-54.4,-44.4,-53.9,-63.7,-44.7,-73.1C-35.5,-82.5,-17.8,-82.1,-3,-77.4C11.7,-72.6,23.4,-63.6,38,-56.7Z" transform="translate(100 100)" />
</svg>
